<?xml version="1.0" encoding="UTF-8"?>
<!DOCTYPE svg PUBLIC "-//W3C//DTD SVG 1.1//EN" "http://www.w3.org/Graphics/SVG/1.1/DTD/svg11.dtd">
<svg xmlns="http://www.w3.org/2000/svg" version="1.1" width="1200px" height="197px" style="shape-rendering:geometricPrecision; text-rendering:geometricPrecision; image-rendering:optimizeQuality; fill-rule:evenodd; clip-rule:evenodd" xmlns:xlink="http://www.w3.org/1999/xlink">
<g><path style="opacity:0.976" fill="#201d1d" d="M 873.5,3.5 C 896.259,4.768 906.092,16.768 903,39.5C 896.975,55.764 885.475,61.9306 868.5,58C 852.399,49.716 847.232,36.8827 853,19.5C 857.36,10.9135 864.194,5.5802 873.5,3.5 Z"/></g>
<g><path style="opacity:0.982" fill="#201d1d" d="M 71.5,3.5 C 72.3322,28.33 72.8322,53.33 73,78.5C 88.0075,63.4994 106.174,57.6661 127.5,61C 143.108,64.2744 152.274,73.7744 155,89.5C 155.333,118.5 155.667,147.5 156,176.5C 157.282,181.064 159.115,185.397 161.5,189.5C 142.178,190.5 122.845,190.833 103.5,190.5C 103.667,158.498 103.5,126.498 103,94.5C 97.195,83.8446 89.0283,81.678 78.5,88C 76.0314,90.4411 74.198,93.2744 73,96.5C 72.5,127.832 72.3334,159.165 72.5,190.5C 55.1667,190.5 37.8333,190.5 20.5,190.5C 20.8333,142.162 20.4999,93.8287 19.5,45.5C 14.0272,41.8605 8.69384,38.0271 3.5,34C 26.8179,25.1722 49.4846,15.0055 71.5,3.5 Z"/></g>
<g><path style="opacity:0.988" fill="#201d1d" d="M 496.5,3.5 C 497.333,60.9986 497.833,118.665 498,176.5C 499.665,181.49 502.165,185.99 505.5,190C 485.503,190.5 465.503,190.667 445.5,190.5C 445.833,142.162 445.5,93.8287 444.5,45.5C 439.5,41.6667 434.5,37.8333 429.5,34C 443.133,28.342 456.799,22.6754 470.5,17C 479.668,13.2509 488.335,8.75093 496.5,3.5 Z"/></g>
<g><path style="opacity:0.983" fill="#211e1e" d="M 660.5,3.5 C 661.332,28.33 661.832,53.33 662,78.5C 682.563,58.9812 705.729,55.1479 731.5,67C 737.827,72.4811 741.993,79.3144 744,87.5C 745.278,118.136 745.945,148.803 746,179.5C 747.706,183.079 749.539,186.579 751.5,190C 731.836,190.5 712.169,190.667 692.5,190.5C 692.667,158.498 692.5,126.498 692,94.5C 687.245,84.4698 679.745,81.9698 669.5,87C 665.839,89.6625 663.339,93.1625 662,97.5C 661.5,128.498 661.333,159.498 661.5,190.5C 644.167,190.5 626.833,190.5 609.5,190.5C 609.667,142.166 609.5,93.8322 609,45.5C 603.744,41.7886 598.578,37.9552 593.5,34C 616.448,25.0777 638.781,14.9111 660.5,3.5 Z"/></g>
<g><path style="opacity:0.972" fill="#201e1e" d="M 819.5,3.5 C 821.33,61.4914 822.164,119.825 822,178.5C 823.663,182.496 825.829,186.163 828.5,189.5C 808.511,190.5 788.511,190.833 768.5,190.5C 768.667,142.166 768.5,93.8322 768,45.5C 762.833,41.6667 757.667,37.8333 752.5,34C 768.628,27.7323 784.628,21.0657 800.5,14C 807.217,10.9795 813.551,7.47951 819.5,3.5 Z"/></g>
<g><path style="opacity:0.978" fill="#201d1d" d="M 572.5,18.5 C 573.496,33.9911 573.83,49.6578 573.5,65.5C 580.167,65.5 586.833,65.5 593.5,65.5C 593.5,69.1667 593.5,72.8333 593.5,76.5C 586.833,76.5 580.167,76.5 573.5,76.5C 573.333,108.168 573.5,139.835 574,171.5C 575.327,175.59 578.16,177.923 582.5,178.5C 586.315,177.972 589.815,176.638 593,174.5C 595.206,182.128 592.706,187.295 585.5,190C 572.641,195.156 559.308,196.823 545.5,195C 533.441,191.941 525.608,184.441 522,172.5C 520.529,140.549 520.029,108.549 520.5,76.5C 516.445,76.8242 512.445,76.4909 508.5,75.5C 529.853,56.4777 551.187,37.4777 572.5,18.5 Z"/></g>
<g><path style="opacity:0.982" fill="#201d1d" d="M 900.5,57.5 C 901.5,57.5 902.5,57.5 903.5,57.5C 903.333,97.5014 903.5,137.501 904,177.5C 906.215,182.1 909.048,186.266 912.5,190C 892.169,190.5 871.836,190.667 851.5,190.5C 851.667,160.165 851.5,129.832 851,99.5C 845.411,95.6223 839.911,91.6223 834.5,87.5C 847.84,82.1064 861.173,76.6064 874.5,71C 883.668,67.2509 892.335,62.7509 900.5,57.5 Z"/></g>
<g><path style="opacity:0.975" fill="#211d1d" d="M 980.5,57.5 C 981.5,57.5 982.5,57.5 983.5,57.5C 983.334,65.1739 983.5,72.8406 984,80.5C 1001.45,61.5116 1022.61,55.6783 1047.5,63C 1058.51,68.0118 1065.01,76.5118 1067,88.5C 1068.28,118.47 1068.94,148.47 1069,178.5C 1070.66,182.496 1072.83,186.163 1075.5,189.5C 1055.51,190.5 1035.51,190.833 1015.5,190.5C 1015.67,158.498 1015.5,126.498 1015,94.5C 1012.99,87.896 1008.49,84.2294 1001.5,83.5C 993.41,84.6195 987.91,88.9528 985,96.5C 984.5,127.832 984.333,159.165 984.5,190.5C 967.167,190.5 949.833,190.5 932.5,190.5C 932.667,160.165 932.5,129.832 932,99.5C 926.5,95.3333 921,91.1667 915.5,87C 938.102,78.9773 959.769,69.144 980.5,57.5 Z"/></g>
<g><path style="opacity:0.977" fill="#201d1d" d="M 222.5,60.5 C 265.939,57.6048 287.272,77.9381 286.5,121.5C 262.824,121.167 239.157,121.5 215.5,122.5C 216.827,134.981 220.66,146.648 227,157.5C 243.139,178.616 262.639,182.283 285.5,168.5C 286.657,171.784 286.824,175.118 286,178.5C 267.538,193.73 246.371,199.23 222.5,195C 194.494,190.992 176.328,175.492 168,148.5C 161.973,119.414 169.473,94.5806 190.5,74C 200.18,66.9888 210.846,62.4888 222.5,60.5 Z M 228.5,75.5 C 235.39,76.5546 239.557,80.5546 241,87.5C 242.908,94.8564 242.908,102.19 241,109.5C 240.097,110.701 238.931,111.535 237.5,112C 232.833,112.667 228.167,112.667 223.5,112C 221.714,111.215 220.214,110.049 219,108.5C 217.429,98.3851 218.762,88.7184 223,79.5C 224.5,77.5313 226.333,76.198 228.5,75.5 Z"/></g>
<g><path style="opacity:0.976" fill="#201d1d" d="M 347.5,60.5 C 361.797,59.5104 375.797,61.0104 389.5,65C 405.604,71.0989 415.104,82.5989 418,99.5C 418.333,122.833 418.667,146.167 419,169.5C 420.816,173.663 423.649,174.497 427.5,172C 429.041,170.421 430.208,168.587 431,166.5C 433.501,166.95 435.667,167.95 437.5,169.5C 434.037,182.797 425.703,191.297 412.5,195C 392.074,199.544 378.574,192.044 372,172.5C 365.32,185.264 354.82,192.764 340.5,195C 331.105,195.886 321.772,195.553 312.5,194C 295.211,187.939 288.378,175.773 292,157.5C 293.392,151.786 296.059,146.786 300,142.5C 308.422,134.758 317.922,128.592 328.5,124C 340.642,119.008 352.975,114.508 365.5,110.5C 366.895,100.456 366.729,90.4564 365,80.5C 362.166,73.3335 356.999,70.8335 349.5,73C 343.667,74.8333 339.833,78.6667 338,84.5C 337.847,92.1734 337.847,99.8401 338,107.5C 333.28,118.111 325.113,122.278 313.5,120C 304.049,116.64 299.382,109.807 299.5,99.5C 301.292,84.0834 309.292,73.25 323.5,67C 331.37,63.8684 339.37,61.7017 347.5,60.5 Z M 365.5,119.5 C 366.661,134.661 366.828,149.994 366,165.5C 362.945,172.11 357.778,174.61 350.5,173C 346.835,171.332 344.668,168.499 344,164.5C 341.572,144.696 348.738,129.696 365.5,119.5 Z"/></g>
<g><path style="opacity:0.976" fill="#201d1d" d="M 1199.5,111.5 C 1199.5,114.833 1199.5,118.167 1199.5,121.5C 1175.83,121.5 1152.17,121.5 1128.5,121.5C 1129.36,141.054 1137.03,157.221 1151.5,170C 1161.71,176.507 1172.71,178.174 1184.5,175C 1189.79,173.354 1194.79,171.187 1199.5,168.5C 1199.5,171.833 1199.5,175.167 1199.5,178.5C 1180.44,193.515 1158.78,199.015 1134.5,195C 1099.38,188.114 1080.72,166.781 1078.5,131C 1078.4,104.526 1089.07,83.8593 1110.5,69C 1129.15,59.7142 1148.48,58.0475 1168.5,64C 1180.33,69.1667 1188.83,77.6667 1194,89.5C 1196.49,96.8121 1198.33,104.145 1199.5,111.5 Z M 1140.5,75.5 C 1147.15,75.639 1151.31,78.9724 1153,85.5C 1155.41,93.1167 1155.75,100.783 1154,108.5C 1153.5,110.333 1152.33,111.5 1150.5,112C 1145.5,112.667 1140.5,112.667 1135.5,112C 1134.07,111.535 1132.9,110.701 1132,109.5C 1129.64,99.489 1130.64,89.8223 1135,80.5C 1136.73,78.5981 1138.56,76.9314 1140.5,75.5 Z"/></g>
</svg>
